<mxfile host="app.diagrams.net" modified="2024-01-07T02:46:11.239Z" agent="Mozilla/5.0 (Windows NT 10.0; Win64; x64) AppleWebKit/537.36 (KHTML, like Gecko) Chrome/119.0.0.0 Safari/537.36" etag="pzf-n3t_UCP7EMSSmTcy" version="22.1.17" type="github">
  <diagram name="Page-1" id="19d8dcba-68ad-dc05-1034-9cf7b2a963f6">
    <mxGraphModel dx="2150" dy="903" grid="1" gridSize="10" guides="1" tooltips="1" connect="1" arrows="1" fold="1" page="1" pageScale="1" pageWidth="1100" pageHeight="850" background="none" math="0" shadow="0">
      <root>
        <mxCell id="0" />
        <mxCell id="1" parent="0" />
        <mxCell id="218ae93e1282097f-8" value="登陆" style="whiteSpace=wrap;html=1;rounded=1;shadow=0;comic=0;strokeWidth=2;fontFamily=Verdana;align=center;fontSize=12;fontStyle=1" parent="1" vertex="1">
          <mxGeometry x="730" y="260" width="200" height="50" as="geometry" />
        </mxCell>
        <mxCell id="cPqvF2EwihPjuZl3FuuC-5" style="edgeStyle=orthogonalEdgeStyle;rounded=0;orthogonalLoop=1;jettySize=auto;html=1;entryX=0;entryY=0.75;entryDx=0;entryDy=0;" edge="1" parent="1" source="6257edae8c83ed4a-9" target="6257edae8c83ed4a-21">
          <mxGeometry relative="1" as="geometry" />
        </mxCell>
        <mxCell id="cPqvF2EwihPjuZl3FuuC-6" style="edgeStyle=orthogonalEdgeStyle;rounded=0;orthogonalLoop=1;jettySize=auto;html=1;entryX=0;entryY=0.5;entryDx=0;entryDy=0;" edge="1" parent="1" source="6257edae8c83ed4a-9" target="218ae93e1282097f-8">
          <mxGeometry relative="1" as="geometry" />
        </mxCell>
        <mxCell id="6257edae8c83ed4a-9" value="登陆注册" style="whiteSpace=wrap;html=1;rounded=1;shadow=0;comic=0;strokeWidth=2;fontFamily=Verdana;align=center;fontSize=12;fontStyle=1" parent="1" vertex="1">
          <mxGeometry x="380" y="190" width="200" height="50" as="geometry" />
        </mxCell>
        <mxCell id="6257edae8c83ed4a-21" value="注册" style="whiteSpace=wrap;html=1;rounded=1;shadow=0;comic=0;strokeWidth=2;fontFamily=Verdana;align=center;fontSize=12;fontStyle=1" parent="1" vertex="1">
          <mxGeometry x="730" y="80" width="200" height="50" as="geometry" />
        </mxCell>
        <mxCell id="cPqvF2EwihPjuZl3FuuC-4" style="edgeStyle=orthogonalEdgeStyle;rounded=0;orthogonalLoop=1;jettySize=auto;html=1;entryX=0;entryY=0.75;entryDx=0;entryDy=0;" edge="1" parent="1" source="6257edae8c83ed4a-1" target="6257edae8c83ed4a-9">
          <mxGeometry relative="1" as="geometry" />
        </mxCell>
        <mxCell id="cPqvF2EwihPjuZl3FuuC-7" style="edgeStyle=orthogonalEdgeStyle;rounded=0;orthogonalLoop=1;jettySize=auto;html=1;entryX=0;entryY=0.5;entryDx=0;entryDy=0;" edge="1" parent="1" source="6257edae8c83ed4a-1" target="cxHVmWbu3RKmy4TeT2cK-3">
          <mxGeometry relative="1" as="geometry" />
        </mxCell>
        <mxCell id="cPqvF2EwihPjuZl3FuuC-8" style="edgeStyle=orthogonalEdgeStyle;rounded=0;orthogonalLoop=1;jettySize=auto;html=1;entryX=0;entryY=0.5;entryDx=0;entryDy=0;" edge="1" parent="1" source="6257edae8c83ed4a-1" target="cxHVmWbu3RKmy4TeT2cK-4">
          <mxGeometry relative="1" as="geometry" />
        </mxCell>
        <mxCell id="cPqvF2EwihPjuZl3FuuC-10" style="edgeStyle=orthogonalEdgeStyle;rounded=0;orthogonalLoop=1;jettySize=auto;html=1;entryX=0;entryY=0.5;entryDx=0;entryDy=0;" edge="1" parent="1" source="6257edae8c83ed4a-1" target="cxHVmWbu3RKmy4TeT2cK-5">
          <mxGeometry relative="1" as="geometry">
            <mxPoint x="330" y="800" as="targetPoint" />
            <Array as="points">
              <mxPoint x="330" y="525" />
              <mxPoint x="330" y="795" />
            </Array>
          </mxGeometry>
        </mxCell>
        <mxCell id="cPqvF2EwihPjuZl3FuuC-11" style="edgeStyle=orthogonalEdgeStyle;rounded=0;orthogonalLoop=1;jettySize=auto;html=1;entryX=0;entryY=0.5;entryDx=0;entryDy=0;" edge="1" parent="1" source="6257edae8c83ed4a-1" target="cxHVmWbu3RKmy4TeT2cK-6">
          <mxGeometry relative="1" as="geometry" />
        </mxCell>
        <mxCell id="cPqvF2EwihPjuZl3FuuC-13" style="edgeStyle=orthogonalEdgeStyle;rounded=0;orthogonalLoop=1;jettySize=auto;html=1;entryX=0;entryY=0.75;entryDx=0;entryDy=0;" edge="1" parent="1" source="6257edae8c83ed4a-1" target="cPqvF2EwihPjuZl3FuuC-12">
          <mxGeometry relative="1" as="geometry" />
        </mxCell>
        <mxCell id="6257edae8c83ed4a-1" value="垃圾分类系统前端功能结构图" style="whiteSpace=wrap;html=1;rounded=1;shadow=0;comic=0;strokeWidth=2;fontFamily=Verdana;align=center;fontSize=12;fontStyle=1" parent="1" vertex="1">
          <mxGeometry x="80" y="500" width="200" height="50" as="geometry" />
        </mxCell>
        <mxCell id="cxHVmWbu3RKmy4TeT2cK-3" value="垃圾分类教育" style="whiteSpace=wrap;html=1;rounded=1;shadow=0;comic=0;strokeWidth=2;fontFamily=Verdana;align=center;fontSize=12;fontStyle=1;direction=east;" parent="1" vertex="1">
          <mxGeometry x="380" y="460" width="200" height="50" as="geometry" />
        </mxCell>
        <mxCell id="cxHVmWbu3RKmy4TeT2cK-4" value="垃圾投放引导&amp;nbsp;&amp;nbsp;" style="whiteSpace=wrap;html=1;rounded=1;shadow=0;comic=0;strokeWidth=2;fontFamily=Verdana;align=center;fontSize=12;fontStyle=1;direction=east;" parent="1" vertex="1">
          <mxGeometry x="380" y="630" width="200" height="50" as="geometry" />
        </mxCell>
        <mxCell id="cxHVmWbu3RKmy4TeT2cK-5" value="垃圾投放记录&amp;nbsp;" style="whiteSpace=wrap;html=1;rounded=1;shadow=0;comic=0;strokeWidth=2;fontFamily=Verdana;align=center;fontSize=12;fontStyle=1;direction=east;" parent="1" vertex="1">
          <mxGeometry x="380" y="770" width="200" height="50" as="geometry" />
        </mxCell>
        <mxCell id="cxHVmWbu3RKmy4TeT2cK-6" value="积分/奖励系统" style="whiteSpace=wrap;html=1;rounded=1;shadow=0;comic=0;strokeWidth=2;fontFamily=Verdana;align=center;fontSize=12;fontStyle=1;direction=east;" parent="1" vertex="1">
          <mxGeometry x="380" y="920" width="200" height="50" as="geometry" />
        </mxCell>
        <mxCell id="cPqvF2EwihPjuZl3FuuC-12" value="用户反馈/建议&amp;nbsp;&amp;nbsp;" style="whiteSpace=wrap;html=1;rounded=1;shadow=0;comic=0;strokeWidth=2;fontFamily=Verdana;align=center;fontSize=12;fontStyle=1;direction=east;" vertex="1" parent="1">
          <mxGeometry x="380" y="1050" width="200" height="50" as="geometry" />
        </mxCell>
      </root>
    </mxGraphModel>
  </diagram>
</mxfile>
